<svg width="52" height="46" viewBox="0 0 52 46" fill="none" xmlns="http://www.w3.org/2000/svg">
<path d="M31.6136 15C31.1449 13.5653 30.527 12.2798 29.7599 11.1435C29.0071 9.9929 28.1051 9.01278 27.054 8.20312C26.017 7.39347 24.8381 6.77557 23.517 6.34943C22.196 5.92329 20.7472 5.71023 19.1705 5.71023C16.5852 5.71023 14.2344 6.37784 12.1179 7.71307C10.0014 9.0483 8.31818 11.0156 7.06818 13.6151C5.81818 16.2145 5.19318 19.4034 5.19318 23.1818C5.19318 26.9602 5.82528 30.1491 7.08949 32.7486C8.35369 35.348 10.0653 37.3153 12.2244 38.6506C14.3835 39.9858 16.8125 40.6534 19.5114 40.6534C22.0114 40.6534 24.2131 40.1207 26.1165 39.0554C28.0341 37.9759 29.5256 36.456 30.5909 34.4957C31.6705 32.5213 32.2102 30.1989 32.2102 27.5284L33.8295 27.8693H20.7045V23.1818H37.3239V27.8693C37.3239 31.4631 36.5568 34.5881 35.0227 37.2443C33.5028 39.9006 31.4006 41.9602 28.7159 43.4233C26.0455 44.8722 22.9773 45.5966 19.5114 45.5966C15.6477 45.5966 12.2528 44.6875 9.32671 42.8693C6.41477 41.0511 4.14205 38.4659 2.50852 35.1136C0.889205 31.7614 0.0795456 27.7841 0.0795456 23.1818C0.0795456 19.7301 0.541193 16.6264 1.46449 13.8707C2.40199 11.1009 3.72301 8.7429 5.42756 6.79688C7.1321 4.85085 9.14915 3.35938 11.4787 2.32244C13.8082 1.28551 16.3722 0.767044 19.1705 0.767044C21.4716 0.767044 23.6165 1.11506 25.6051 1.81108C27.608 2.4929 29.3906 3.46591 30.9531 4.73011C32.5298 5.98011 33.8438 7.47869 34.8949 9.22585C35.946 10.9588 36.6705 12.8835 37.0682 15H31.6136ZM51.658 1.36364V45H46.3739V1.36364H51.658Z" fill="black"/>
</svg>
